<svg id="Layer_1" enable-background="new 0 0 510.709 510.709" height="40px" viewBox="0 0 510.709 510.709" width="40px" xmlns="http://www.w3.org/2000/svg"><g><g><path d="m255.354 476.457c-2.59 0-5.18-.67-7.5-2.01-36.709-21.193-97.583-67.753-150.831-123.997-44.261-46.752-97.023-115.251-97.023-176.083 0-79.243 62.106-126.075 123.658-137.334 30.077-5.503 60.558-2.78 85.823 7.665 19.021 7.864 34.527 19.678 45.873 34.789 11.346-15.111 26.853-26.926 45.873-34.789 25.265-10.444 55.744-13.166 85.823-7.665 61.552 11.26 123.658 58.091 123.658 137.334 0 26.326-11.035 57.111-32.8 91.501-17.581 27.78-42.049 57.908-72.726 89.549-55.99 57.748-116.937 104.37-142.329 119.03-2.319 1.34-4.909 2.01-7.499 2.01z" fill="#bee75e"/></g><path d="m387.051 37.033c-30.079-5.501-60.559-2.779-85.823 7.665-19.021 7.863-34.527 19.678-45.873 34.789-.062-.083-.129-.163-.191-.246v397.209c.064.001.128.006.191.006 2.59 0 5.18-.67 7.5-2.01 25.393-14.66 86.339-61.282 142.329-119.03 30.677-31.641 55.145-61.769 72.726-89.549 21.765-34.39 32.8-65.175 32.8-91.501-.001-79.242-62.107-126.074-123.659-137.333z" fill="#00cb75"/><g><path d="m255.354 371.013c-2.852 0-5.704-.812-8.194-2.436l-153.306-99.982c-4.245-2.77-6.806-7.495-6.806-12.564s2.561-9.795 6.806-12.564l153.306-99.981c4.98-3.248 11.408-3.248 16.389 0l153.306 99.981c4.245 2.77 6.806 7.495 6.806 12.564s-2.561 9.795-6.806 12.564l-153.306 99.982c-2.49 1.625-5.343 2.436-8.195 2.436z" fill="#fff36c"/></g><path d="m416.854 243.466-153.306-99.981c-2.546-1.66-5.47-2.466-8.386-2.429v229.951c.064.001.128.007.191.007 2.852 0 5.704-.812 8.194-2.436l153.306-99.982c4.245-2.77 6.806-7.495 6.806-12.564s-2.559-9.796-6.805-12.566z" fill="#ffde46"/><g><path d="m255.354 338.563c-45.508 0-82.532-37.023-82.532-82.532 0-4.013.288-7.959.844-11.82.901-6.254 29.569-12.822 31.794-18.544 2.175-5.593-22.121-10.354-18.837-15.281 14.805-22.219 40.087-36.886 68.731-36.886 45.508 0 82.532 37.023 82.532 82.532 0 11.887-2.526 23.194-7.069 33.415-2.084 4.688-9.792-8.386-12.676-4.205-4.016 5.823-3.56 28.64-8.899 33.253-14.469 12.498-33.311 20.068-53.888 20.068z" fill="#00429d"/></g><path d="m255.354 173.499c-.064 0-.127.003-.191.003v165.056c.064 0 .127.005.191.005 20.577 0 39.419-7.569 53.888-20.069 5.339-4.613 4.883-27.429 8.899-33.253 2.884-4.181 10.592 8.892 12.676 4.205 4.543-10.22 7.069-21.528 7.069-33.415 0-45.509-37.023-82.532-82.532-82.532z" fill="#00347b"/><path d="m330.797 289.436c-7.917-18.922-20.176-35.898-35.952-49.434-24.005-20.598-54.644-31.94-86.273-31.94-7.266 0-14.468.59-21.565 1.76-6.849 10.098-11.509 21.791-13.324 34.391 11.215-4.065 22.935-6.151 34.89-6.151 48.88 0 90.052 33.646 100.16 80.844 9.401-7.995 16.988-18.052 22.064-29.47z" fill="#fff4f4"/><path d="m294.845 240.002c-11.839-10.158-25.293-18.061-39.682-23.466v32.572c26.855 13.606 46.924 38.773 53.568 69.797 9.403-7.994 16.99-18.051 22.066-29.469-7.917-18.922-20.176-35.897-35.952-49.434z" fill="#f6efea"/></g></svg>